<svg id="Capa_1" data-name="Capa 1" xmlns="http://www.w3.org/2000/svg" viewBox="0 0 430 384"><title>logo</title><path d="M628,273H609.15a20,20,0,0,0-18.86,13.34L512,508h18.85a20,20,0,0,0,18.86-13.34Z" transform="translate(-512 -124)"/><path d="M619.6,273H628l81,139H676L607.38,294.25A14.14,14.14,0,0,1,619.6,273Z" transform="translate(-512 -124)"/><path d="M774.41,273H790l82,235H853.2a20,20,0,0,1-18.88-13.41L762.74,289.44A12.36,12.36,0,0,1,774.41,273Z" transform="translate(-512 -124)"/><path d="M790,273H768.49a20,20,0,0,0-17.28,9.93L676,412h33Z" transform="translate(-512 -124)"/><path d="M791.52,124H807L942,508H923.17a20,20,0,0,1-18.87-13.37L779.81,140.52A12.4,12.4,0,0,1,791.52,124Z" transform="translate(-512 -124)"/><path d="M807,124H785.47a20,20,0,0,0-17.26,9.9L684.14,277.52a20,20,0,0,0,.33,20.76L695,315Z" transform="translate(-512 -124)"/><path d="M894.35,273.94l-9.91-27.43-100,178.61a20,20,0,0,0-1.42,16.4L793,470,893,290.46A20,20,0,0,0,894.35,273.94Z" transform="translate(-512 -124)"/></svg>