<svg width="20" height="19" viewBox="0 0 20 19" fill="none" xmlns="http://www.w3.org/2000/svg">
<path d="M10.3226 17.5128L12.4059 15.8461M10.3226 17.5128V10.0128V17.5128ZM10.3226 17.5128L8.23926 15.8461L10.3226 17.5128Z" stroke="white" stroke-width="2" stroke-linecap="round" stroke-linejoin="round"/>
<path d="M4.51776 6.77695C3.72961 6.97527 3.04099 7.45458 2.58131 8.12481C2.12162 8.79505 1.9225 9.61008 2.02135 10.4168C2.12021 11.2235 2.51023 11.9663 3.11815 12.5057C3.72607 13.0451 4.51004 13.344 5.32276 13.3461H6.1561" stroke="white" stroke-width="2" stroke-linecap="round" stroke-linejoin="round"/>
<path d="M13.5145 5.12778C13.2296 3.99992 12.5266 3.02256 11.5479 2.39382C10.5692 1.76509 9.38803 1.53202 8.24385 1.74186C7.09967 1.95171 6.07809 2.58876 5.38619 3.52389C4.69429 4.45902 4.38386 5.62225 4.51781 6.77777C4.51781 6.77777 4.64531 7.51277 4.90614 7.92944" stroke="white" stroke-width="2" stroke-linecap="round" stroke-linejoin="round"/>
<path d="M14.4896 13.3461C15.0779 13.3457 15.6596 13.2207 16.1961 12.9793C16.7327 12.738 17.2121 12.3857 17.6027 11.9457C17.9933 11.5057 18.2863 10.988 18.4624 10.4266C18.6385 9.86517 18.6937 9.27284 18.6244 8.68857C18.5551 8.10431 18.3628 7.54134 18.0602 7.03674C17.7577 6.53213 17.3517 6.09733 16.8689 5.76094C16.3862 5.42456 15.8377 5.19422 15.2596 5.08509C14.6814 4.97596 14.0867 4.99051 13.5146 5.12779L12.4062 5.42945" stroke="white" stroke-width="2" stroke-linecap="round" stroke-linejoin="round"/>
</svg>
