<svg width="24" height="24" viewBox="0 0 24 24" fill="none" xmlns="http://www.w3.org/2000/svg">
<path fill-rule="evenodd" clip-rule="evenodd" d="M8.41506 0C5.96806 0 4.00006 2.053 4.00006 4.568C4.00006 6.097 4.72806 7.455 5.84706 8.284C5.27034 8.71609 4.80287 9.27728 4.48213 9.92259C4.16138 10.5679 3.99628 11.2794 4.00006 12C4.00006 13.53 4.72806 14.887 5.84706 15.716C5.27034 16.1481 4.80287 16.7093 4.48213 17.3546C4.16138 17.9999 3.99628 18.7114 4.00006 19.432C4.00006 21.947 5.96806 24 8.41506 24C10.8611 24 12.8301 21.947 12.8301 19.432V15.57C13.6034 16.2148 14.5782 16.5683 15.5851 16.569C18.0321 16.568 20.0001 14.515 20.0001 12C20.0001 10.47 19.2731 9.113 18.1531 8.284C18.7298 7.85191 19.1973 7.29072 19.518 6.64541C19.8387 6.0001 20.0038 5.28862 20.0001 4.568C20.0001 2.053 18.0321 0 15.5851 0H8.41506V0ZM5.65906 4.568C5.65906 2.977 6.90106 1.703 8.41506 1.703H11.1701V7.433H8.41506C6.90106 7.433 5.65906 6.158 5.65906 4.568V4.568ZM15.5851 7.432H12.8301V1.702H15.5851C17.1001 1.702 18.3411 2.977 18.3411 4.568C18.3411 6.158 17.1001 7.432 15.5851 7.432ZM5.66006 12C5.66006 10.41 6.90206 9.135 8.41606 9.135H11.1711V14.865H8.41506C6.90006 14.865 5.65906 13.59 5.65906 12H5.66006ZM12.8301 12C12.8301 10.41 14.0721 9.135 15.5861 9.135C17.1011 9.135 18.3421 10.409 18.3421 12C18.3421 13.59 17.1011 14.865 15.5861 14.865C14.0721 14.865 12.8311 13.591 12.8311 12H12.8301ZM5.66006 19.432C5.66006 17.842 6.90206 16.568 8.41606 16.568H11.1711V19.432C11.1711 21.023 9.93106 22.297 8.41606 22.297C6.90206 22.297 5.66006 21.023 5.66006 19.432Z" fill="black"/>
</svg>
