<svg width="24" height="24" viewBox="0 0 24 24" fill="none" xmlns="http://www.w3.org/2000/svg">
<path d="M5.23901 15.0631L7.21001 2.3811C7.22448 2.28718 7.26811 2.20019 7.33475 2.13244C7.40138 2.06468 7.48763 2.0196 7.58129 2.00357C7.67495 1.98753 7.77129 2.00136 7.85666 2.04309C7.94204 2.08482 8.01212 2.15234 8.05701 2.2361L10.177 6.2151L5.23901 15.0631ZM19.24 18.1401L17.363 6.4691C17.3489 6.38742 17.3127 6.31116 17.2583 6.24861C17.2039 6.18605 17.1334 6.13958 17.0545 6.11423C16.9755 6.08889 16.8912 6.08563 16.8105 6.10483C16.7299 6.12402 16.6561 6.16492 16.597 6.2231L4.76001 18.1401L11.31 21.8311C11.721 22.0611 12.222 22.0611 12.633 21.8311L19.24 18.1401ZM13.917 7.9551L12.4 5.0521C12.3617 4.97922 12.3041 4.91821 12.2336 4.87565C12.1631 4.83308 12.0824 4.81059 12 4.81059C11.9177 4.81059 11.8369 4.83308 11.7664 4.87565C11.6959 4.91821 11.6384 4.97922 11.6 5.0521L4.93901 16.9891L13.917 7.9551Z" fill="black"/>
</svg>
